<svg xmlns="http://www.w3.org/2000/svg" xmlns:svg="http://www.w3.org/2000/svg" xmlns:xlink="http://www.w3.org/1999/xlink" id="svg2" width="96" height="96" version="1.1"><metadata id="metadata782"/><defs id="defs4"><linearGradient id="e"><stop id="stop7" offset="0" stop-color="#b0b0b0"/><stop id="stop9" offset="1" stop-color="#f5f5f5"/></linearGradient><linearGradient id="a" stop-color="#fff"><stop id="stop12" offset="0"/><stop id="stop14" offset="1" stop-opacity="0"/></linearGradient><filter id="i" width="1.384" height="1.384" x="-.192" y="-.192" color-interpolation-filters="sRGB"><feGaussianBlur id="feGaussianBlur17" stdDeviation="5.28"/></filter><linearGradient id="j" x1="48" x2="48" y1="20.221" y2="138.66" gradientUnits="userSpaceOnUse" xlink:href="#a"/><clipPath id="f"><rect id="rect21" width="84" height="84" x="6" y="6" fill="#fff" rx="6" ry="6"/></clipPath><linearGradient id="d" x1="45.448" x2="45.448" y1="92.54" y2="7.016" gradientTransform="matrix(1.0059 0 0 .99417 100 0)" gradientUnits="userSpaceOnUse"><stop id="stop24" offset="0"/><stop id="stop26" offset="1" stop-opacity=".588"/></linearGradient><clipPath id="g"><rect id="rect29" width="112.64" height="112.64" x="27.682" y="7.682" fill="#fff" rx="8.046" ry="8.046"/></clipPath><linearGradient id="v" x1="32.251" x2="32.251" y1="90" y2="6" gradientTransform="translate(0,1)" gradientUnits="userSpaceOnUse" xlink:href="#d"/><radialGradient id="h" cx="48" cy="90.172" r="42" gradientTransform="matrix(1.1573 0 0 .99591 -7.551 .19713)" gradientUnits="userSpaceOnUse" xlink:href="#a"/><linearGradient id="u" x1="36.357" x2="36.357" y1="6" y2="63.893" gradientUnits="userSpaceOnUse" xlink:href="#a"/><linearGradient id="t" x1="48" x2="48" y1="90" y2="6" gradientTransform="translate(.002534 .002375)" gradientUnits="userSpaceOnUse"><stop id="stop35" offset="0" stop-color="#8f6033"/><stop id="stop37" offset="1" stop-color="#a87849"/></linearGradient><linearGradient id="s" x1="49.996" x2="49.996" y1="71.738" y2="31.657" gradientUnits="userSpaceOnUse"><stop id="stop40" offset="0" stop-color="#bf2222"/><stop id="stop42" offset="1" stop-color="#e94c4c"/></linearGradient><linearGradient id="r" x1="56" x2="40" y1="80" y2="24" gradientTransform="matrix(1,0,0,1.125,0,-10.5)" gradientUnits="userSpaceOnUse"><stop id="stop45" offset="0" stop-color="#e7e7e7"/><stop id="stop47" offset="1" stop-color="#fff"/></linearGradient><linearGradient id="q" x1="45" x2="51" y1="6" y2="6" gradientTransform="matrix(0,-1,1,0,42,54)" gradientUnits="userSpaceOnUse" xlink:href="#e"/><linearGradient id="p" x1="44" x2="52" y1="6" y2="6" gradientTransform="matrix(0,1,-1,0,54,-42)" gradientUnits="userSpaceOnUse" xlink:href="#e"/><linearGradient id="o" x1="43" x2="53" y1="5" y2="5" gradientTransform="matrix(0,-1,1,0,43,54)" gradientUnits="userSpaceOnUse"><stop id="stop52" offset="0" stop-color="#848484"/><stop id="stop54" offset="1" stop-color="#f5f5f5"/></linearGradient><linearGradient id="n" x1="36" x2="36" y1="6" y2="15.055" gradientUnits="userSpaceOnUse" xlink:href="#a"/><linearGradient id="m" x1="37" x2="37" y1="16" y2="6" gradientUnits="userSpaceOnUse"><stop id="stop58" offset="0" stop-color="#3b3b3b"/><stop id="stop60" offset=".122" stop-color="#aeaeae"/><stop id="stop62" offset=".245" stop-color="#e9e9e9"/><stop id="stop64" offset=".447" stop-color="#8a8a8a"/><stop id="stop66" offset="1" stop-color="#f0f0f0"/></linearGradient><linearGradient id="l" x1="32.251" x2="32.251" y1="90" y2="6" gradientTransform="matrix(1.0238 0 0 1.0119 -1.1429 .929)" gradientUnits="userSpaceOnUse" xlink:href="#d"/><linearGradient id="k" x1="32.251" x2="32.251" y1="6.132" y2="90.239" gradientTransform="matrix(1.0238,0,0,-1.0119,-1.1429,98.071)" gradientUnits="userSpaceOnUse" xlink:href="#d"/><linearGradient id="f-3" x1="6.62" x2="6.62" y1="16.385" y2="1.092" gradientTransform="matrix(-3.5754836,0,0,3.0823052,74.390602,19.873355)" gradientUnits="userSpaceOnUse" spreadMethod="pad"><stop id="stop27" offset="0" stop-color="#dcdcdc"/><stop id="stop29" offset=".307" stop-color="#ebebeb"/><stop id="stop31" offset=".707" stop-color="#fff"/><stop id="stop33" offset=".845" stop-color="#fafafa"/><stop id="stop35-6" offset="1" stop-color="#f0f0f0"/></linearGradient><filter style="color-interpolation-filters:sRGB" id="filter3899"><feGaussianBlur id="feGaussianBlur3901" stdDeviation=".57"/></filter><linearGradient id="linearGradient3182" x1="12" x2="12" y1="4.5" y2="20.5" gradientTransform="matrix(4,0,0,4,0,-82)" gradientUnits="userSpaceOnUse" xlink:href="#linearGradient3655"/><linearGradient id="linearGradient3655"><stop id="stop3657" offset="0" style="stop-color:#ad0707;stop-opacity:1"/><stop id="stop3659" offset="1" style="stop-color:#f75535;stop-opacity:1"/></linearGradient><linearGradient id="outerBackgroundGradient-8"><stop style="stop-color:#465674;stop-opacity:1" id="stop3864-8-6-9" offset="0"/><stop style="stop-color:#798bac;stop-opacity:1" id="stop3866-9-1-0" offset="1"/></linearGradient><linearGradient id="linearGradient7328" x1="35" x2="253" y1="156" y2="156" gradientTransform="matrix(0,-0.39261645,0.39261645,0,-13.24816,104.53677)" gradientUnits="userSpaceOnUse" xlink:href="#outerBackgroundGradient-43"/><linearGradient id="outerBackgroundGradient-43"><stop style="stop-color:#2c333d;stop-opacity:1" id="stop3864-8-6-744" offset="0"/><stop style="stop-color:#485362;stop-opacity:1" id="stop3866-9-1-541" offset="1"/></linearGradient><clipPath id="clipPath4492" clipPathUnits="userSpaceOnUse"><path id="path4494" d="m 15.562635,9.6015624 c -3.857522,0 -6.9609379,3.1034156 -6.9609379,6.9609376 v 16.875 c 0,3.857522 3.1034159,6.960937 6.9609379,6.960937 h 16.875 c 3.857522,0 6.960937,-3.103415 6.960937,-6.960937 v -16.875 c 0,-3.857522 -3.103415,-6.9609376 -6.960937,-6.9609376 z" style="color:#bebebe;display:inline;overflow:visible;visibility:visible;opacity:.5;fill:#b35151;fill-opacity:1;fill-rule:nonzero;stroke:none;stroke-width:2;marker:none;enable-background:accumulate"/></clipPath><linearGradient id="linearGradient3929"><stop style="stop-color:#f6a602;stop-opacity:1" id="stop3931" offset="0"/><stop style="stop-color:#ffb621;stop-opacity:1" id="stop3933" offset="1"/></linearGradient><clipPath id="clipPath10483" clipPathUnits="userSpaceOnUse"><path id="path10485" d="m 84,46.500023 c -27.43126,0 -49.5,22.06873 -49.5,49.5 V 216.00002 c 0,27.43127 22.06874,49.5 49.5,49.5 h 120 c 27.43127,0 49.5,-22.06873 49.5,-49.5 V 96.000023 c 0,-27.43127 -22.06873,-49.5 -49.5,-49.5 z" style="color:#bebebe;display:inline;overflow:visible;visibility:visible;opacity:.5;fill:#bf4f4f;fill-opacity:1;fill-rule:nonzero;stroke:none;stroke-width:2;marker:none;enable-background:accumulate"/></clipPath></defs><path style="color:#bebebe;display:inline;overflow:visible;visibility:visible;fill:url(#linearGradient7328);fill-opacity:1;fill-rule:nonzero;stroke:none;stroke-width:.7852329;marker:none;enable-background:accumulate" id="path4200-3" d="m 24.44301,5.008498 c -10.76996,0 -19.43451,8.664547 -19.43451,19.434514 v 47.11398 c 0,10.76996 8.66455,19.43451 19.43451,19.43451 h 47.11398 c 10.76996,0 19.43451,-8.66455 19.43451,-19.43451 v -47.11398 c 0,-10.769967 -8.66455,-19.434514 -19.43451,-19.434514 z"/><g style="display:inline;enable-background:new" id="g10455" clip-path="url(#clipPath10483)" transform="matrix(0.37505523,0,0,0.21236109,-5.9740475,34.767532)"><path style="color:#000;font-style:normal;font-variant:normal;font-weight:400;font-stretch:normal;font-size:medium;line-height:normal;font-family:Sans;-inkscape-font-specification:Sans;text-indent:0;text-align:start;text-decoration:none;text-decoration-line:none;letter-spacing:normal;word-spacing:normal;text-transform:none;writing-mode:lr-tb;direction:ltr;baseline-shift:baseline;text-anchor:start;display:inline;overflow:visible;visibility:visible;opacity:0;fill:#000;fill-opacity:1;stroke:none;stroke-width:.17483602px;marker:none;enable-background:accumulate" id="path4269" d="m 41.249978,241.99996 c 0.193228,0.31793 0.393674,0.62431 0.59375,0.9375 H 246.15623 c 0.20008,-0.31319 0.40052,-0.61957 0.59375,-0.9375 z" clip-path="none"/></g><path id="path3852" d="m 51.471886,26.725833 c -2.431756,-0.0054 -4.447074,0.414245 -6.402279,1.39624 -1.811644,0.909906 -4.012879,2.718433 -5.1082,4.154669 -1.852124,2.428573 -1.78031,2.359653 -2.656263,2.009225 -2.761894,-1.104877 -5.940388,-1.295113 -8.479611,-0.510819 -4.700068,1.451695 -8.074169,5.971694 -8.275286,11.101816 -0.03237,0.826031 -0.113788,1.590798 -0.204325,1.736791 -0.09056,0.145985 -0.684331,0.391327 -1.294077,0.544873 -2.889179,0.727494 -5.166405,2.578087 -6.368222,5.142255 -0.570106,1.216333 -0.64704,1.63689 -0.64704,4.08656 0,2.57548 0.03299,2.76698 0.749204,4.222779 1.245494,2.531933 4.699541,5.380635 7.968791,5.380635 h 6.334165 c -0.01807,-0.190642 -0.150026,-0.545956 -0.340547,-0.919477 -0.673999,-1.321142 -1.15715,-3.631684 -1.157855,-5.516855 -0.0023,-5.179469 3.101053,-9.21287 8.445553,-10.965601 1.72624,-0.566113 2.145444,-0.828929 2.145444,-1.328129 0,-0.703641 1.281709,-3.554947 2.281664,-5.074145 1.402626,-2.130941 3.240073,-3.764898 5.550912,-4.903873 5.784225,-2.850946 12.585721,-1.921574 16.754892,2.247606 l 1.498406,1.464354 1.60057,-0.408657 c 0.891281,-0.232301 1.925432,-0.435247 2.281658,-0.44271 0.81628,-0.01713 0.862322,-0.617357 0.170274,-2.69032 C 64.15374,30.96502 58.268418,26.742506 51.471886,26.725833 Z m -0.442715,11.646694 c -2.881446,-0.01546 -4.08841,0.270975 -6.470385,1.46435 -2.275953,1.140238 -4.400529,3.910009 -5.550908,7.253645 -0.253214,0.736014 -0.476767,1.560147 -0.476767,1.838949 0,0.888539 -0.540863,1.277088 -2.281662,1.634623 -3.498424,0.718539 -6.147296,2.690994 -7.15148,5.278476 -0.409646,1.055572 -0.547327,1.832421 -0.544872,3.473576 0.0077,5.133229 2.971863,9.943961 7.457967,9.943961 1.08975,0 5.495444,0.03175 21.965259,0 h 20.534965 c 3.269248,0 5.199967,-4.321041 5.414691,-6.640663 0.326292,-4.235146 -1.483194,-7.107593 -5.312529,-8.479606 L 77.285321,53.66307 77.115047,51.824116 C 76.567883,45.120527 69.791506,41.09022 62.982359,43.446672 l -1.396241,0.51082 -1.600569,-1.668679 C 57.130022,39.28994 55.12143,38.394506 51.029171,38.372527 Z" style="display:inline;fill:#fff;fill-opacity:1;stroke:none;stroke-width:.4495427;enable-background:new"/></svg>